<?xml version="1.0" encoding="UTF-8" standalone="no"?>
<!-- Created with Inkscape (http://www.inkscape.org/) -->

<svg
   width="114.73524mm"
   height="72.851875mm"
   viewBox="0 0 114.73524 72.851875"
   version="1.1"
   id="svg5"
   xml:space="preserve"
   inkscape:version="1.2.2 (1:1.2.2+202212051552+b0a8486541)"
   sodipodi:docname="favicon.svg"
   xmlns:inkscape="http://www.inkscape.org/namespaces/inkscape"
   xmlns:sodipodi="http://sodipodi.sourceforge.net/DTD/sodipodi-0.dtd"
   xmlns="http://www.w3.org/2000/svg"
   xmlns:svg="http://www.w3.org/2000/svg"><sodipodi:namedview
     id="namedview7"
     pagecolor="#ffffff"
     bordercolor="#000000"
     borderopacity="0.25"
     inkscape:showpageshadow="2"
     inkscape:pageopacity="0.0"
     inkscape:pagecheckerboard="0"
     inkscape:deskcolor="#d1d1d1"
     inkscape:document-units="mm"
     showgrid="false"
     inkscape:zoom="1.829812"
     inkscape:cx="-155.75371"
     inkscape:cy="180.07314"
     inkscape:window-width="3366"
     inkscape:window-height="1376"
     inkscape:window-x="74"
     inkscape:window-y="27"
     inkscape:window-maximized="1"
     inkscape:current-layer="layer1" /><defs
     id="defs2" /><g
     inkscape:label="Layer 1"
     inkscape:groupmode="layer"
     id="layer1"
     transform="translate(-49.903883,-65.843952)"><path
       style="fill:#4d7aff;stroke-width:0.289471;fill-opacity:1"
       d="m 64.466133,138.09059 c -0.12231,-0.1979 -0.18696,-1.22727 -0.14368,-2.28748 0.0907,-2.2224 0.19767,-2.11179 -2.765468,-2.86059 -7.574312,-1.91411 -12.379857,-7.5137 -11.56296,-13.47361 0.618524,-4.51263 5.092203,-6.85062 9.28378,-4.85179 3.275743,1.56208 3.302964,7.46791 0.04256,9.22378 -0.568893,0.30637 -1.034353,0.6488 -1.034353,0.76098 0,0.32288 1.546792,1.33952 3.230853,2.12349 2.768948,1.28903 2.578518,1.84481 2.490798,-7.26902 l -0.0769,-7.99414 -2.567801,-1.10643 c -6.699847,-2.88688 -9.879494,-6.69958 -9.879494,-11.846405 0,-5.206511 3.776212,-9.039246 10.491307,-10.648356 l 2.096628,-0.502395 0.002,-1.609142 c 0.002,-2.163113 0.39627,-2.6525 2.03884,-2.5355 l 1.29212,0.09201 0.0862,1.809203 0.0862,1.809193 h 3.01183 3.01183 l 0.0862,-1.809193 0.0862,-1.809203 h 1.44736 1.44735 l 0.085,1.930634 0.0851,1.930634 1.21756,0.187753 c 3.44253,0.530852 7.91305,2.580848 9.99104,4.58147 5.38279,5.182353 2.27163,14.658177 -4.34666,13.238807 -4.24921,-0.91129 -5.76615,-6.00348 -2.74853,-9.226613 l 0.63749,-0.680903 -0.82753,-0.661648 c -0.8117,-0.648979 -2.55997,-1.313361 -3.45601,-1.313361 -0.74101,0 -0.73635,13.245885 0.004,13.512235 10.56151,3.79568 15.09472,8.93451 14.22853,16.12939 -0.64593,5.3655 -5.11791,9.03163 -12.60785,10.33594 l -1.82871,0.31846 v 2.10588 c 0,2.48019 -0.26985,2.83108 -2.07728,2.70104 l -1.25165,-0.0901 -0.0846,-2.2434 -0.0846,-2.24341 h -2.88254 -2.88253 l -0.0248,1.08553 c -0.0439,1.91349 -0.15184,2.83992 -0.37271,3.19731 -0.28406,0.4596 -2.68945,0.45063 -2.97482,-0.011 z m 9.09455,-16.43595 0.0775,-6.809 -2.8121,-1.00674 c -1.54668,-0.55372 -2.91671,-1.05018 -3.04455,-1.10324 -0.12783,-0.0531 -0.23242,3.42189 -0.23242,7.72214 0,9.01314 -0.38593,8.11881 3.47366,8.04981 l 2.46051,-0.044 z m 5.58669,4.69889 c 2.97332,-2.54505 2.63664,-6.70923 -0.72969,-9.02534 -0.70159,-0.4827 -1.33975,-0.87765 -1.41812,-0.87765 -0.0783,0 -0.15709,2.52909 -0.17491,5.6202 -0.037,6.40845 -0.0761,6.33615 2.32272,4.28279 z m -5.51941,-27.265787 c 0,-7.410542 0.31449,-6.849166 -3.61839,-6.458934 l -2.31577,0.229776 v 5.35443 5.354435 l 2.74998,0.92163 c 1.51249,0.50691 2.84768,0.93062 2.96709,0.94159 0.1194,0.0109 0.21709,-2.84335 0.21709,-6.342927 z"
       id="path473"
       sodipodi:nodetypes="csssssssscsssccscccccccccccsssscsscsscssccccccsccccssssccssssssscccscs" /><path
       style="fill:#4d7aff;stroke-width:0.22025;fill-opacity:1"
       d="m 145.22597,138.6308 c -0.98258,-0.20791 -1.15825,-0.82384 -1.15825,-4.06088 0,-3.3812 0.062,-3.24629 -1.762,-3.83402 -8.47676,-2.73136 -13.21662,-10.42402 -13.21435,-21.44658 0.002,-11.076323 4.75716,-18.814077 13.21435,-21.504041 1.82809,-0.58145 1.762,-0.433133 1.762,-3.953985 0,-3.748911 0.1226,-3.979507 2.1055,-3.960221 1.94983,0.01898 2.07925,0.253461 2.07925,3.766946 v 2.939243 l 1.15634,0.0046 c 6.56535,0.02478 11.90476,4.367833 13.80636,11.230037 1.55264,5.602811 -1.74415,9.838431 -6.41811,8.245851 -5.52086,-1.88115 -4.90482,-10.089129 0.84693,-11.284169 l 0.80855,-0.16799 -1.47508,-1.497038 c -2.21225,-2.245148 -5.56823,-3.580174 -7.89904,-3.142257 l -0.82595,0.155181 v 19.141863 19.14188 l 0.79291,0.14876 c 0.43608,0.0819 1.50155,0.0337 2.3677,-0.10672 4.58229,-0.74345 7.76021,-4.36364 9.87779,-11.25243 0.55637,-1.80999 1.15316,-2.35516 2.27098,-2.07462 1.49455,0.3751 1.44126,1.92258 -0.20526,5.96118 -2.79636,6.85891 -7.83644,10.84767 -13.72753,10.86402 l -1.37659,0.003 v 2.83886 c 0,2.3816 -0.062,2.91295 -0.38542,3.29884 -0.39565,0.47218 -1.70561,0.74208 -2.64108,0.54413 z m -1.2079,-29.47782 c 0.001,-8.11625 -0.0616,-15.35149 -0.13944,-16.078314 l -0.1413,-1.321503 -0.73406,0.991127 c -1.62719,2.196963 -1.97715,3.914052 -2.23328,10.95748 -0.46621,12.82073 0.19241,19.34319 2.22962,22.08015 l 0.73772,0.99114 0.13945,-1.43163 c 0.0766,-0.7874 0.14027,-8.07219 0.14129,-16.18845 z"
       id="path469"
       sodipodi:nodetypes="csssssssccssscsscccscsssccssccsccssscss" /><path
       style="fill:#4d7aff;stroke-width:0.0575213;fill-opacity:1"
       d="m 91.397413,138.6483 c -1.0649,-0.07 -1.82634,-0.71618 -2.07378,-1.75987 -0.12199,-0.51456 -0.10691,-2.06935 0.0258,-2.65598 0.30834,-1.36339 0.7286,-1.56875 4.02374,-1.96624 5.48942,-0.66216 6.33593,-1.69325 6.52643,-7.94956 0.0297,-0.97411 0.0689,-5.7042 0.0872,-10.51131 0.0409,-10.75015 0.556337,-23.516279 0.614287,-35.779592 -0.27084,-6.132983 1.1873,-6.708686 -1.954137,-6.594866 -2.18556,0.08135 -4.43715,0.468892 -6.30467,1.085161 -6.41508,1.78544 -6.14874,8.394836 -9.15847,12.119197 -0.51581,0.555937 -1.14201,0.726395 -2.67625,0.728498 -1.6175,0.0022 -2.1541,-0.181557 -2.69475,-0.922906 -0.43229,-0.592765 -0.5012,-1.178801 -0.31951,-2.717306 0.16879,-1.429329 -0.19472,0.698998 -0.0303,-3.663375 0.0337,-0.893629 0.0852,-2.217266 0.11451,-2.941414 0.0293,-0.724148 0.0815,-2.035178 0.11588,-2.9134 0.0344,-0.878222 0.0746,-3.109495 0.0892,-4.958384 0.0168,-2.116474 -0.33839,-0.02199 -0.29919,-0.149446 0.14699,-0.477487 0.57129,-0.879038 1.1856,-1.122021 0.39321,-0.155534 1.27018,-0.169865 3.68865,-0.06028 4.09434,0.185521 5.5335,0.237483 10.4233,0.376341 8.851337,0.251355 11.417467,0.29839 17.923357,0.328514 8.13289,0.03766 18.61557,-0.09879 20.87613,-0.271727 1.15736,-0.08854 4.61241,-0.204685 5.19142,-0.174513 3.4897,0.293162 3.55565,-0.543687 3.56375,2.392624 0.15023,3.426631 1.68471,13.958098 0.28323,16.07748 -0.47856,0.709741 -1.31572,0.976892 -3.0841,0.984178 -1.04077,0.0043 -1.815,-0.120645 -2.26757,-0.365906 -0.13824,-0.07492 -0.28212,-0.125159 -0.31975,-0.111654 -0.0376,0.01351 -0.0855,-0.0017 -0.10641,-0.03379 -0.0237,-0.03645 6.5e-4,-0.04427 0.065,-0.02084 0.0696,0.02534 0.0425,-0.03396 -0.0837,-0.182898 -0.26787,-0.316235 -0.39216,-0.715321 -0.53965,-1.732791 -0.36743,-2.671184 -5.25556,-8.628809 -7.511,-9.506279 -0.0487,-0.01658 -0.16027,-0.07724 -0.2479,-0.134807 -0.5458,-0.358579 -2.383,-1.050659 -3.73835,-1.40825 -1.21283,-0.319988 -1.16987,-0.311238 -2.00537,-0.408494 -2.37198,-0.276106 -3.20228,-0.256586 -3.392,0.07974 -0.12815,0.227157 -0.11438,-1.290441 -0.22721,25.055052 -0.0246,5.746964 -0.0447,14.898964 -0.0447,20.337784 v 9.88874 l 0.14114,0.67232 c 0.64811,3.08721 1.8217,3.91243 6.41402,4.51009 2.53258,0.32959 3.00712,0.45722 3.31968,0.89286 0.63818,0.88943 0.76313,3.41977 0.21917,4.43818 -0.22248,0.41654 -0.64536,0.79417 -1.03243,0.92199 -0.38447,0.12695 -2.35234,0.14185 -3.71706,0.0281 -1.81138,-0.15093 -3.30828,-0.17332 -12.40963,-0.18566 -9.67618,-0.0131 -10.367837,-0.003 -14.342527,0.20982 -1.75851,0.0941 -3.55951,0.12626 -4.31105,0.0769 z"
       id="path326"
       sodipodi:nodetypes="sscscsccccssssssccssssscccssscscccsssssscssssscscss" /></g></svg>
