<?xml version="1.0" encoding="UTF-8" standalone="no"?>
<!-- Created with Inkscape (http://www.inkscape.org/) -->

<svg
   width="100mm"
   height="100mm"
   viewBox="0 0 100 99.999999"
   version="1.1"
   id="svg689"
   xml:space="preserve"
   inkscape:version="1.2.2 (1:1.2.2+202212051552+b0a8486541)"
   sodipodi:docname="articles.svg"
   xmlns:inkscape="http://www.inkscape.org/namespaces/inkscape"
   xmlns:sodipodi="http://sodipodi.sourceforge.net/DTD/sodipodi-0.dtd"
   xmlns="http://www.w3.org/2000/svg"
   xmlns:svg="http://www.w3.org/2000/svg"><sodipodi:namedview
     id="namedview691"
     pagecolor="#ffffff"
     bordercolor="#000000"
     borderopacity="0.25"
     inkscape:showpageshadow="2"
     inkscape:pageopacity="0.0"
     inkscape:pagecheckerboard="0"
     inkscape:deskcolor="#d1d1d1"
     inkscape:document-units="mm"
     showgrid="false"
     inkscape:zoom="0.2287265"
     inkscape:cx="-3834.2736"
     inkscape:cy="247.01991"
     inkscape:window-width="3366"
     inkscape:window-height="1376"
     inkscape:window-x="74"
     inkscape:window-y="27"
     inkscape:window-maximized="1"
     inkscape:current-layer="layer1" /><defs
     id="defs686" /><g
     inkscape:label="Layer 1"
     inkscape:groupmode="layer"
     id="layer1"
     transform="translate(-51.260178,-76.629172)"><path
       style="fill:none;fill-opacity:1;stroke:#ffffff;stroke-width:2.75167;stroke-linejoin:round;stroke-dasharray:none;stroke-opacity:1"
       d="m 87.146238,93.32764 -31.099793,-3.507353 0.581833,72.441133 44.283502,1.5317 45.82939,-2.76634 -0.0996,-71.764668 c -0.57612,0.04349 -32.62216,3.660012 -33.05155,3.768027"
       id="path864"
       sodipodi:nodetypes="ccccccc" /><path
       style="fill:none;fill-opacity:1;stroke:#ffffff;stroke-width:2.75167;stroke-dasharray:none;stroke-opacity:1"
       d="m 60.605382,95.537132 0.571423,62.515628 c 29.883421,1.5781 31.205862,-4.18549 39.500175,4.67272 6.32858,-9.21624 12.76668,-3.78873 41.50379,-6.27844 L 141.72372,94.833906 C 114.04984,96.201876 115.86028,88.062128 99.386354,97.981938 91.510917,88.177961 81.051289,97.21717 60.605379,95.537132 Z"
       id="path866"
       sodipodi:nodetypes="cccccccc" /><path
       style="fill:none;stroke:#ffffff;stroke-width:1.5875;stroke-linejoin:round;stroke-dasharray:none;stroke-opacity:1"
       d="m 99.386664,96.546979 1.305886,66.952201"
       id="path1503"
       sodipodi:nodetypes="cc" /><g
       id="g2431"
       transform="matrix(1.0470934,-0.02251117,0.01927372,1.222976,-0.88505341,-4.2993973)"
       style="fill:none;stroke:#ffffff;stroke-width:1.21574697;stroke-linecap:square;stroke-dasharray:none;stroke-opacity:1"><path
         style="fill:none;stroke:#ffffff;stroke-width:1.21574697;stroke-linecap:square;stroke-linejoin:round;stroke-dasharray:none;stroke-opacity:1"
         d="m 99.856405,89.928194 c 2.314385,-1.203507 4.162905,-1.768049 6.037895,-1.952535 4.81175,-0.47344 9.79786,1.556073 23.2793,1.712816"
         id="path1505"
         sodipodi:nodetypes="csc" /><path
         style="fill:none;stroke:#ffffff;stroke-width:1.21574697;stroke-linecap:square;stroke-linejoin:round;stroke-dasharray:none;stroke-opacity:1"
         d="m 100.22375,96.021505 c 8.25371,-4.292027 10.58242,-0.457539 29.31719,-0.239718"
         id="path1505-2"
         sodipodi:nodetypes="cc" /><path
         style="fill:none;stroke:#ffffff;stroke-width:1.21574697;stroke-linecap:square;stroke-linejoin:round;stroke-dasharray:none;stroke-opacity:1"
         d="m 100.54983,102.1137 c 5.60601,-2.915191 8.47865,-2.0814 15.6151,-1.17822"
         id="path1505-2-7"
         sodipodi:nodetypes="cc" /><path
         style="fill:none;stroke:#ffffff;stroke-width:1.21574697;stroke-linecap:square;stroke-linejoin:round;stroke-dasharray:none;stroke-opacity:1"
         d="m 99.901954,129.26316 c 5.478256,-3.08723 8.383586,-2.34264 15.551996,-1.66051"
         id="path1505-2-7-9"
         sodipodi:nodetypes="cc" /><path
         style="fill:none;stroke:#ffffff;stroke-width:1.21574697;stroke-linecap:square;stroke-linejoin:round;stroke-dasharray:none;stroke-opacity:1"
         d="m 100.1679,123.27664 c 8.06563,-4.54533 10.55404,-0.78455 29.2819,-1.1461"
         id="path1505-2-0"
         sodipodi:nodetypes="cc" /></g><g
       id="g53434"
       transform="matrix(0.94457165,0.01106603,-0.01106603,0.94457165,8.6382379,6.5310874)"><path
         style="fill:#ffffff;fill-opacity:1;stroke-width:2.80215;stroke-dasharray:none"
         d="m 109.98746,135.03171 c 0.0314,-0.32654 6.85715,-11.04418 7.03918,-11.05253 0.0669,-0.003 1.29461,1.35944 2.72813,3.02781 1.43353,1.66839 2.63214,3.03262 2.66356,3.03164 0.0313,-9.4e-4 0.57696,-0.61052 1.21231,-1.35462 0.63535,-0.74405 1.21644,-1.35473 1.29133,-1.35703 0.20117,-0.006 5.65945,6.85481 5.66774,7.12426 l 0.006,0.20594 -10.31671,0.31733 -10.31675,0.31732 z m 15.6033,-10.01956 c -0.5058,-0.1582 -1.1776,-0.79235 -1.36789,-1.29122 -0.34209,-0.89686 -0.16511,-1.8336 0.47249,-2.49977 0.6375,-0.66619 1.57808,-0.89732 2.50999,-0.61681 0.54185,0.16309 1.20241,0.77355 1.4013,1.295 0.18902,0.49556 0.20995,1.17888 0.051,1.68515 -0.1666,0.5327 -0.78854,1.18261 -1.31939,1.37869 -0.4872,0.17996 -1.26003,0.20162 -1.74812,0.049 z"
         id="path10219"
         sodipodi:nodetypes="ssssssscccscscsscscc" /><rect
         style="fill:none;fill-opacity:1;stroke:#ffffff;stroke-width:1.3692;stroke-linecap:round;stroke-dasharray:none;stroke-dashoffset:3.11018"
         id="rect53428"
         width="28.687294"
         height="17.711529"
         x="101.36748"
         y="124.39993"
         transform="matrix(0.99919991,-0.03999421,0.03706778,0.99931275,0,0)" /></g></g></svg>
