<?xml version="1.0" encoding="UTF-8"?>
<svg id="logosandtypes_com" data-name="logosandtypes com" xmlns="http://www.w3.org/2000/svg" viewBox="0 0 150 150">
  <defs>
    <style>
      .cls-1 {
        fill: #61dabf;
      }

      .cls-2 {
        fill: none;
      }

      .cls-3 {
        fill: #ee5757;
      }
    </style>
  </defs>
  <path class="cls-2" d="M0,0H150V150H0V0Z"/>
  <g id="Group">
    <path id="Path" class="cls-3" d="M30.94,88.99v-27.2c0-1.38,1.12-2.49,2.5-2.49h30.71c1.39,0,2.5,1.12,2.5,2.49v27.2c0,1.38-1.12,2.49-2.5,2.49h-30.71c-1.39,0-2.5-1.12-2.5-2.49Z"/>
    <path id="Path-2" data-name="Path" class="cls-1" d="M66.66,108.83v27.88c0,1.37-1.11,2.49-2.48,2.49l-30.71,.28c-1.39,.02-2.53-1.11-2.53-2.49v-28.17c0-1.38,1.12-2.49,2.5-2.49h30.71c1.39,.02,2.51,1.14,2.51,2.51Z"/>
    <path id="Path-3" data-name="Path" class="cls-3" d="M125.62,14.07c0-1.38-1.12-2.49-2.5-2.49H33.44c-1.39,0-2.5,1.12-2.5,2.49v27.86c0,1.38,1.12,2.49,2.5,2.49H123.11c1.39,0,2.5-1.12,2.5-2.49V14.07h.02Z"/>
    <path id="Path-4" data-name="Path" class="cls-1" d="M125.62,61.79c0-1.38-1.12-2.49-2.5-2.49h-38.14c-1.39,0-2.5,1.12-2.5,2.49v27.2c0,1.38,1.12,2.49,2.5,2.49h38.12c1.39,0,2.5-1.12,2.5-2.49v-27.2h.02Z"/>
  </g>
</svg>